<svg width="185" height="48" viewBox="0 0 185 48" fill="none" xmlns="http://www.w3.org/2000/svg">
<path d="M143.883 14.6475H133.676V47.461H143.883V14.6475Z" fill="#1F1F1F"/>
<path d="M138.751 0C135.406 0 132.696 2.47975 132.696 5.47853C132.696 8.4773 135.406 10.9571 138.751 10.9571C142.096 10.9571 144.806 8.4773 144.806 5.47853C144.806 2.47975 142.096 0 138.751 0Z" fill="#1F1F1F"/>
<path d="M82.4662 7.15107C80.7938 5.59401 78.7754 4.3253 76.5263 3.4026C74.3926 2.53757 72.0858 2.13389 69.6637 2.01855H50.3447V47.4615H60.5521V36.9081H66.6073L74.5656 47.5192H86.7913L77.3337 35.1204L77.795 34.8897C79.5251 34.0247 81.0245 32.9867 82.3509 31.7756C84.0233 30.2186 85.3496 28.3155 86.2723 26.2394C87.2527 24.1633 87.7141 21.8566 87.7141 19.5498V19.4345C87.7141 17.0701 87.2527 14.7633 86.33 12.6873C85.465 10.5535 84.1386 8.70813 82.4662 7.15107ZM77.6797 19.6075C77.6797 20.8186 77.449 21.9719 77.0453 23.01C76.6417 24.048 76.065 24.9707 75.3153 25.7204C74.5656 26.4701 73.6429 27.1044 72.5472 27.5658C71.7975 27.9118 70.8748 28.1425 69.8944 28.2002H60.5521V10.6689H68.395H68.9717C70.2404 10.6689 71.3938 10.8995 72.4318 11.3609C73.4699 11.8222 74.4502 12.4566 75.1999 13.264C75.9496 14.0713 76.584 14.994 77.0453 16.0897C77.5067 17.1854 77.7374 18.3388 77.7374 19.5498V19.6075H77.6797Z" fill="#1F1F1F"/>
<path d="M0 2.01855L15.7436 47.5192H29.7571L45.5006 2.01855H33.3902L22.7791 34.1977L12.1104 2.01855H0Z" fill="#1F1F1F"/>
<path d="M174.679 14.0136L174.621 14.648L174.044 14.4173C171.853 13.4946 169.431 13.0333 166.893 13.0333C164.298 13.0333 161.876 13.4946 159.685 14.4173C157.493 15.34 155.59 16.6087 153.975 18.1658C152.361 19.7228 151.092 21.6259 150.227 23.702C149.304 25.8357 148.843 28.0848 148.843 30.5069V30.6222C148.843 32.9867 149.304 35.2357 150.169 37.3695C151.034 39.5032 152.303 41.3486 153.918 42.9057C155.532 44.4627 157.436 45.7314 159.627 46.5965C161.818 47.5192 164.183 47.9805 166.72 47.9805C169.315 47.9805 171.737 47.5192 173.929 46.5965L174.679 46.2505V47.5768H184.828V2.01855H174.679V14.0136ZM175.832 30.5069V30.6222C175.832 31.9486 175.601 33.1597 175.198 34.313C174.794 35.4664 174.217 36.4468 173.467 37.3118C172.718 38.1768 171.795 38.8112 170.699 39.3302C169.661 39.8492 168.45 40.0799 167.066 40.0799C165.798 40.0799 164.644 39.8492 163.548 39.3302C162.453 38.8112 161.53 38.1192 160.78 37.2541C160.031 36.3891 159.396 35.3511 158.935 34.1977C158.474 33.0443 158.301 31.7756 158.301 30.4492V30.3339C158.301 29.0075 158.531 27.7388 158.935 26.5854C159.339 25.4321 159.915 24.394 160.665 23.5867C161.415 22.7216 162.337 22.0873 163.433 21.5682C164.471 21.0492 165.682 20.8186 167.009 20.8186C168.335 20.8186 169.488 21.0492 170.584 21.5682C171.622 22.0873 172.602 22.7793 173.352 23.6443C174.102 24.5094 174.736 25.5474 175.198 26.7008C175.601 27.9118 175.832 29.1805 175.832 30.5069Z" fill="#1F1F1F"/>
<path d="M123.469 18.1081C121.796 16.551 119.778 15.2823 117.529 14.3596C115.222 13.4369 112.685 12.9756 110.032 12.9756C107.322 12.9756 104.784 13.4369 102.535 14.3596C100.228 15.2823 98.2675 16.551 96.5951 18.1081C94.9227 19.6652 93.5964 21.5682 92.6737 23.6443C91.6933 25.7204 91.2319 28.0271 91.2319 30.3915V30.5069C91.2319 32.8713 91.6933 35.1204 92.616 37.1964C93.5387 39.2725 94.8651 41.1756 96.5375 42.7326C98.2098 44.2897 100.228 45.5584 102.477 46.4234C104.784 47.3461 107.264 47.8075 109.917 47.8075C112.627 47.8075 115.164 47.3461 117.471 46.4234C119.778 45.5007 121.796 44.232 123.469 42.675C125.141 41.1179 126.468 39.2148 127.39 37.1388C128.371 35.0627 128.832 32.756 128.832 30.4492V30.3339C128.832 27.9694 128.371 25.6627 127.448 23.5866C126.41 21.5682 125.083 19.7228 123.469 18.1081ZM118.625 30.6222C118.625 31.9486 118.394 33.1596 117.99 34.313C117.587 35.4664 117.01 36.4468 116.26 37.2541C115.51 38.0615 114.588 38.7535 113.492 39.2725C112.454 39.7915 111.243 40.0222 109.859 40.0222C108.59 40.0222 107.437 39.7915 106.399 39.2725C105.361 38.7535 104.38 38.0615 103.631 37.1964C102.881 36.3314 102.247 35.2934 101.785 34.14C101.324 32.9866 101.151 31.7179 101.151 30.3915V30.2762C101.151 28.9498 101.382 27.6811 101.785 26.5277C102.189 25.3744 102.766 24.394 103.515 23.529C104.265 22.6639 105.188 22.0296 106.283 21.5106C107.322 20.9915 108.533 20.7609 109.859 20.7609C111.185 20.7609 112.339 20.9915 113.434 21.5106C114.472 22.0296 115.453 22.7216 116.202 23.5866C116.952 24.4517 117.587 25.4897 118.048 26.6431C118.509 27.7964 118.682 29.0652 118.682 30.4492V30.6222H118.625Z" fill="#1F1F1F"/>
</svg>
